/* XPM */
static const char * inpaint_xpm[] = {
"18 18 295 2",
"  	c #FFFDF4",
". 	c #FFFFF8",
"+ 	c #FAFFF8",
"@ 	c #FAFAF8",
"# 	c #FFFDFF",
"$ 	c #FBFFFF",
"% 	c #F5FFFF",
"& 	c #FFF3F6",
"* 	c #FFFFFF",
"= 	c #F6F7FF",
"- 	c #FAF7EE",
"; 	c #E9F9FF",
"> 	c #F0FFFB",
", 	c #FBFFF3",
"' 	c #FFF1FB",
") 	c #FFFAFF",
"! 	c #F9FCFF",
"~ 	c #FBFEFF",
"{ 	c #FFF4FD",
"] 	c #EDCDD0",
"^ 	c #957371",
"/ 	c #804733",
"( 	c #8B4D1C",
"_ 	c #8E4713",
": 	c #9F591D",
"< 	c #874920",
"[ 	c #81594F",
"} 	c #E6DACC",
"| 	c #F7FDFB",
"1 	c #FEFEFE",
"2 	c #FAFAFA",
"3 	c #FDFEFF",
"4 	c #F3FFFF",
"5 	c #EFFFFF",
"6 	c #FEFFFF",
"7 	c #EFD3D0",
"8 	c #A26A59",
"9 	c #8F4E28",
"0 	c #CA8854",
"a 	c #E4B668",
"b 	c #FFB74B",
"c 	c #FFC152",
"d 	c #C6A560",
"e 	c #AE9263",
"f 	c #AD6F3C",
"g 	c #6F3618",
"h 	c #D6C5CB",
"i 	c #F6FFF9",
"j 	c #F7FCF8",
"k 	c #FFFBFB",
"l 	c #BD9593",
"m 	c #8D573F",
"n 	c #CBA461",
"o 	c #CBCC57",
"p 	c #90B21D",
"q 	c #A0A322",
"r 	c #DCBA3F",
"s 	c #7D7C8A",
"t 	c #2183EE",
"u 	c #3999FF",
"v 	c #A196A6",
"w 	c #C99147",
"x 	c #543614",
"y 	c #EBEBEB",
"z 	c #FCFCFC",
"A 	c #FBFBFF",
"B 	c #BF8997",
"C 	c #A66851",
"D 	c #F7CD77",
"E 	c #F0DA75",
"F 	c #5DA329",
"G 	c #07A200",
"H 	c #0C8B00",
"I 	c #9B8F39",
"J 	c #997F6E",
"K 	c #4769CA",
"L 	c #2D87FF",
"M 	c #6E8688",
"N 	c #FEC667",
"O 	c #9B5108",
"P 	c #7F7E7C",
"Q 	c #FEFDFB",
"R 	c #FCFFFD",
"S 	c #D1C5B9",
"T 	c #9B5936",
"U 	c #F8B662",
"V 	c #F5BB50",
"W 	c #E7B049",
"X 	c #AAA933",
"Y 	c #688B09",
"Z 	c #90881D",
"` 	c #DAAB41",
" .	c #F4C14E",
"..	c #CCA760",
"+.	c #989369",
"@.	c #CAA851",
"#.	c #FAC247",
"$.	c #D3712A",
"%.	c #484745",
"&.	c #FFFFFD",
"*.	c #FFF0FF",
"=.	c #90685C",
"-.	c #B89231",
";.	c #FFE947",
">.	c #FFCA3E",
",.	c #F39A32",
"'.	c #F1AB4B",
").	c #FFBF6D",
"!.	c #FBC558",
"~.	c #F7C758",
"{.	c #FFC441",
"].	c #FFA329",
"^.	c #DA741F",
"/.	c #F7832C",
"(.	c #FFD15A",
"_.	c #B27A1D",
":.	c #3B3A38",
"<.	c #FCFBF9",
"[.	c #FFF6FF",
"}.	c #865D4B",
"|.	c #E9C362",
"1.	c #E7C42A",
"2.	c #F7AA2A",
"3.	c #EB9332",
"4.	c #F7C264",
"5.	c #FDD679",
"6.	c #FAC754",
"7.	c #FBCB69",
"8.	c #F29C53",
"9.	c #BD1200",
"0.	c #DD0C1F",
"a.	c #D61007",
"b.	c #E28238",
"c.	c #A37321",
"d.	c #4E4D4B",
"e.	c #FCFAFB",
"f.	c #F1FDEF",
"g.	c #AC8363",
"h.	c #F9C482",
"i.	c #D3A13E",
"j.	c #DCA639",
"k.	c #F8CD6E",
"l.	c #F5DB7A",
"m.	c #EEDA5D",
"n.	c #FFD063",
"o.	c #FCCC5D",
"p.	c #E7A652",
"q.	c #C20B0F",
"r.	c #D30015",
"s.	c #C40E00",
"t.	c #C65C20",
"u.	c #6A2B00",
"v.	c #848283",
"w.	c #FFFEFF",
"x.	c #FFFBFF",
"y.	c #976C4C",
"z.	c #FFEDA7",
"A.	c #F8DB77",
"B.	c #FFE877",
"C.	c #FDDF85",
"D.	c #FFDD8F",
"E.	c #FEDA68",
"F.	c #FBD566",
"G.	c #FCC745",
"H.	c #E5C33E",
"I.	c #EF8E3F",
"J.	c #CB5B19",
"K.	c #DC7622",
"L.	c #AD6825",
"M.	c #3D250B",
"N.	c #D9D7D8",
"O.	c #73503A",
"P.	c #FFF0A4",
"Q.	c #FAC869",
"R.	c #B08034",
"S.	c #805221",
"T.	c #F3BE88",
"U.	c #F4E882",
"V.	c #FACA5B",
"W.	c #FFC759",
"X.	c #FDC64F",
"Y.	c #FAC84B",
"Z.	c #FFD55B",
"`.	c #F5A858",
" +	c #5B2D09",
".+	c #75776A",
"++	c #F8F6F7",
"@+	c #FFFBF8",
"#+	c #8C6254",
"$+	c #D1995E",
"%+	c #A15F23",
"&+	c #4C2717",
"*+	c #705753",
"=+	c #DEAC7B",
"-+	c #F9EB7E",
";+	c #FFCA5C",
">+	c #FAC46E",
",+	c #FFC66C",
"'+	c #FFC444",
")+	c #E7B836",
"!+	c #864410",
"~+	c #413630",
"{+	c #F2F8F8",
"]+	c #FDFBFC",
"^+	c #FFFAFE",
"/+	c #E3D1C5",
"(+	c #4A3520",
"_+	c #41322D",
":+	c #E4CFE0",
"<+	c #B18D8F",
"[+	c #F8CD96",
"}+	c #FFDF6D",
"|+	c #FDC868",
"1+	c #FDC74B",
"2+	c #FFC63E",
"3+	c #F3B347",
"4+	c #874D1B",
"5+	c #3B1814",
"6+	c #D8D2DC",
"7+	c #F2FFFF",
"8+	c #F8FFFA",
"9+	c #FFFFFB",
"0+	c #FCFFFF",
"a+	c #FCF2F0",
"b+	c #EADBD8",
"c+	c #E8DFE0",
"d+	c #FCF1EF",
"e+	c #B4947F",
"f+	c #F1C481",
"g+	c #FFD86C",
"h+	c #FDCD4D",
"i+	c #FFD060",
"j+	c #EAA653",
"k+	c #763E0F",
"l+	c #4E311F",
"m+	c #C2BDB9",
"n+	c #FEFFFD",
"o+	c #FDFEF8",
"p+	c #FFF6F7",
"q+	c #F4FDFF",
"r+	c #FEFCFF",
"s+	c #FFFEFD",
"t+	c #F9FEFA",
"u+	c #C8AF91",
"v+	c #BB8F4E",
"w+	c #FFDA7A",
"x+	c #F2BE44",
"y+	c #BC8332",
"z+	c #6D371B",
"A+	c #46272C",
"B+	c #C6C3CA",
"C+	c #F6FFFE",
"D+	c #FBFFF8",
"E+	c #FDF9F0",
"F+	c #FFF5FC",
"G+	c #FFFCFD",
"H+	c #F8FFFF",
"I+	c #FDFFF2",
"J+	c #F4FFF7",
"K+	c #F9FFFF",
"L+	c #FEEDE6",
"M+	c #69461E",
"N+	c #926C21",
"O+	c #804A0E",
"P+	c #3F1700",
"Q+	c #6B5955",
"R+	c #E9E8F0",
"S+	c #F6FAFD",
"T+	c #FBFFFC",
"U+	c #F3FFFD",
"V+	c #F7FAFF",
"W+	c #F8F3F0",
"X+	c #FFFFF6",
"Y+	c #F2FFF8",
"Z+	c #E3CCC6",
"`+	c #624A2E",
" @	c #6E5050",
".@	c #B4A4A5",
"+@	c #FBFBFB",
"@@	c #FCFEF9",
"#@	c #F9F9FB",
"$@	c #F7FCFF",
"%@	c #FFF9FF",
"&@	c #FFF9FD",
"*@	c #FEFFF6",
"=@	c #FFFAFB",
"-@	c #FFF7FF",
";@	c #EEFEFD",
">@	c #FAFEFF",
",@	c #FBF4FC",
"'@	c #F3F7FF",
")@	c #FEFEFF",
"!@	c #F7F9F8",
"~@	c #EFFDFD",
"{@	c #F7FFFE",
"  . + @ # # $ % & * =   - ; > , * * ",
"' ) ! ~ ) { ] ^ / ( _ : < [ } | 1 2 ",
"3 4 5 6 7 8 9 0 a b c d e f g h * * ",
"i j k l m n o p q r s t u v w x y z ",
"A $ B C D E F G H I J K L M N O P Q ",
"R S T U V W X Y Z `  ...+.@.#.$.%.&.",
"*.=.-.;.>.,.'.).!.~.{.].^./.(._.:.<.",
"[.}.|.1.2.3.4.5.6.7.8.9.0.a.b.c.d.e.",
"f.g.h.i.j.k.l.m.n.o.p.q.r.s.t.u.v.w.",
"x.y.z.A.B.C.D.E.F.G.H.I.J.K.L.M.N.w.",
") O.P.Q.R.S.T.U.V.W.X.Y.Z.`. +.+w.++",
"@+#+$+%+&+*+=+-+;+>+,+'+)+!+~+{+]+w.",
"^+/+(+_+:+<+[+}+|+1+2+3+4+5+6+7+8+9+",
"0+a+b+c+d+e+f+g+h+i+j+k+l+m+n+o+# p+",
"q+r+s+t+  u+v+w+x+y+z+A+B+C+D+E+F+G+",
"H+* I+J+K+L+M+N+O+P+Q+R+S+R T+0+% U+",
"V+W+X+Y+4 x.Z+`+ @.@+@$ @@9+#@$@%@&@",
"*@=@-@H+;@>@,@x.'@)@# w.z !@* ]+~@{@"};
