/* XPM */
static const char * settings_xpm[] = {
/* columns rows colors chars-per-pixel */
"18 18 240 2",
"   c #3F2210",
".  c #343436",
"X  c #373739",
"o  c #3A3A3C",
"O  c #41120A",
"+  c #4A1713",
"@  c #750102",
"#  c #462520",
"$  c #4A2C22",
"%  c #6B4433",
"&  c #414045",
"*  c #434345",
"=  c #4C474B",
"-  c #4E4D53",
";  c #515151",
":  c #505052",
">  c #58585A",
",  c #59595B",
"<  c #644940",
"1  c #646057",
"2  c #6D6759",
"3  c #775C63",
"4  c #605B72",
"5  c #666762",
"6  c #626264",
"7  c #6A6A6A",
"8  c #6A6C6B",
"9  c #666874",
"0  c #6E757B",
"q  c #707070",
"w  c #717075",
"e  c #737375",
"r  c #747476",
"t  c #74757A",
"y  c #77767C",
"u  c #707E7F",
"i  c #78787A",
"p  c #79797B",
"a  c #7A797E",
"s  c #7A7B7F",
"d  c #911901",
"f  c #98130E",
"g  c #991B0F",
"h  c #8E1117",
"j  c #A91513",
"k  c #8A3135",
"l  c #B22631",
"z  c #9A474F",
"x  c #955249",
"c  c #8D4A53",
"v  c #A75C56",
"b  c #9C736D",
"n  c #9F7C76",
"m  c #A2636C",
"M  c #A36A71",
"N  c #AF7E79",
"B  c #C0484A",
"V  c #C5544C",
"C  c #DC5245",
"Z  c #DF4C56",
"A  c #EE4143",
"S  c #FE5443",
"D  c #7D8077",
"F  c #6A7D8B",
"G  c #757381",
"H  c #767A83",
"J  c #797880",
"K  c #7E7E80",
"L  c #7F7F81",
"P  c #7C7E8B",
"I  c #7F9097",
"U  c #818183",
"Y  c #828284",
"T  c #838385",
"R  c #858587",
"E  c #878787",
"W  c #858489",
"Q  c #8D8D8F",
"!  c #8F8F91",
"~  c #8E8D92",
"^  c #838A9C",
"/  c #909092",
"(  c #939395",
")  c #93939B",
"_  c #97969E",
"`  c #99999B",
"'  c #B78882",
"]  c #A18B98",
"[  c #9399A5",
"{  c #9D9EA0",
"}  c #9E9EA0",
"|  c #9D9EA3",
" . c #9F9DA8",
".. c #A1A0A5",
"X. c #A3A3A5",
"o. c #A3A2A7",
"O. c #A4A4A6",
"+. c #A5A5A7",
"@. c #A8A4A1",
"#. c #A6A6A8",
"$. c #A6A7AB",
"%. c #ACA2AB",
"&. c #AAAAAC",
"*. c #ABABAD",
"=. c #AAA9AE",
"-. c #B9A0A4",
";. c #AFAFB1",
":. c #B0AFB5",
">. c #B1BBB0",
",. c #B8BEBC",
"<. c #D58B82",
"1. c #C99393",
"2. c #F48B88",
"3. c #EA988A",
"4. c #FFA39C",
"5. c #DDB4AE",
"6. c #D1BFBD",
"7. c #FFB5AA",
"8. c #FFB5AB",
"9. c #FFB0B4",
"0. c #BCBBC0",
"q. c #C0BFC7",
"w. c #B5C2CB",
"e. c #C1C1C3",
"r. c #C7C7C7",
"t. c #C8C7C3",
"y. c #D7CEC9",
"u. c #CFC4D5",
"i. c #C8C8D2",
"p. c #CECED0",
"a. c #CDC9D8",
"s. c #CFCDDA",
"d. c #D1CFDA",
"f. c #D1CFDD",
"g. c #CED1D6",
"h. c #C7D1DA",
"j. c #D4D4D6",
"k. c #D0D3D8",
"l. c #D6D3DA",
"z. c #D3D4D9",
"x. c #DCD7DB",
"c. c #D2DEDE",
"v. c #DBDADF",
"b. c #E4DED2",
"n. c #CCD1E5",
"m. c #D7D5E2",
"M. c #D8DDE0",
"N. c #D1D5EE",
"B. c #DCD9EA",
"V. c #DDDAEB",
"C. c #D8DDF3",
"Z. c #E0DEEB",
"A. c #E1DFF5",
"S. c #D7E7F4",
"D. c #E4E2E3",
"F. c #E4E4E6",
"G. c #E7E7E9",
"H. c #E5E5ED",
"J. c #E8E3E9",
"K. c #EAEAEA",
"L. c #EAEAEC",
"P. c #ECECEE",
"I. c #EEEEEE",
"U. c #EFEFEF",
"Y. c #FFEBED",
"T. c #EFEFF1",
"R. c #EEEEF6",
"E. c #EFEDFA",
"W. c #F1ECF2",
"Q. c #F1F1F1",
"!. c #F1F1F3",
"~. c #F3F3F3",
"^. c #F4F6F3",
"/. c #F4F4F4",
"(. c #F6F6F4",
"). c #F6F6F6",
"_. c #F7F7F7",
"`. c #FCF2F3",
"'. c #FFF7F1",
"]. c #F4F9F3",
"[. c #F3FFF6",
"{. c #F7FFF6",
"}. c #F8F9F1",
"|. c #FFFEF1",
" X c #F8FAF7",
".X c #FAFBF6",
"XX c #FFF8F6",
"oX c #FFF9F7",
"OX c #FDFEF6",
"+X c #F6F6F8",
"@X c #F7F7F9",
"#X c #F6F5FA",
"$X c #FFF7FF",
"%X c #F3F8FB",
"&X c #F7FFF9",
"*X c #F4FDFA",
"=X c #F5F8FF",
"-X c #F4FBFF",
";X c #F4FDFF",
":X c #F6FFFF",
">X c #F7FFFF",
",X c #F8F8F8",
"<X c #F9F9F9",
"1X c #FAFAF8",
"2X c #FBFBF9",
"3X c #F9F9FB",
"4X c #FAFAFA",
"5X c #FBFBFB",
"6X c #FFF8FA",
"7X c #F8FFFB",
"8X c #FFFCF8",
"9X c #FCFCFA",
"0X c #FFFCFB",
"qX c #FFFFFB",
"wX c #FAFAFC",
"eX c #FAFBFD",
"rX c #FBFBFD",
"tX c #FBF9FF",
"yX c #FBFAFF",
"uX c #FFF9FF",
"iX c #FCFBFF",
"pX c #FFFAFF",
"aX c #FFFBFF",
"sX c #F9FEFF",
"dX c #F9FFFF",
"fX c #FCFCFC",
"gX c #FDFDFD",
"hX c #FDFFFC",
"jX c #FFFEFC",
"kX c #FEFFFD",
"lX c #FFFFFD",
"zX c #FCFCFE",
"xX c #FDFDFF",
"cX c #FFFCFF",
"vX c #FEFDFF",
"bX c #FEFEFE",
"nX c #FEFEFF",
"mX c #FFFEFF",
"MX c #FEFFFF",
"NX c #FFFFFF",
/* pixels */
"5XfXfXfX@XfXfXfXfXfX5X9XfXyXfX XfX5X",
"5XfXfX/ #.*.T s L.fXfXyXfXfXfXK.fX5X",
"fXW.fXK 0.fXfXe.6 F.5XfX5Xp.#.t #.fX",
"fXE 7 M.w =.@XyX+.r fXfXfX+.P., ( fX",
"fX_ H.5 J.9 w.;Xx.= %X5X*.` , ; P.fX",
"iX| R.y.8 0 i.W.r.* fX:.T . | K.fX5X",
"yXt z.v.d.a.m.g.M.H P i o z.fXfXfX).",
"fX=.s n.C.A.u.%.k.h.^ X !.fXfXfXfXfX",
"fXfX` 4 F ^ 3 m M -.l.W Q fX5XfXfXfX",
"fXfXfXD.@.2 % 2.l z }.fX/ U fXfX).fX",
"fXfX{.|.5.x 3.V h c c.!.fX/ L 5XfXfX",
"fXfX9Xn N 9.Z @ $ u N.F.T.fXX.q ~.fX",
"fXoXb 1.7.C g # S.[ p B.V.f.E._ a fX",
"9X' <.8.A j O t.7X{.] G d.Z.q.- E fX",
"'.v 4.S f + >.OXfX`.:X .J :.& L fXfX",
"Y.k B d   ,.9X{.(.iX*XiXX.; L fX9X9X",
"fX6.% 1 b.9X=XdX*X].iXfXfXfX9X9X9XOX",
"iXfXiX:XiXfXdXfXfXdXfXfX5XfXfX9X X9X"
};
